<mxfile host="app.diagrams.net" modified="2023-11-18T10:02:40.620Z" agent="Mozilla/5.0 (Windows NT 10.0; Win64; x64) AppleWebKit/537.36 (KHTML, like Gecko) Chrome/119.0.0.0 Safari/537.36" etag="MMQGoy1WlZmebnm9haYc" version="22.1.3" type="device">
  <diagram name="Strona-1" id="rqPeMBsF4VC7KwJ8XTbf">
    <mxGraphModel dx="398" dy="219" grid="1" gridSize="10" guides="1" tooltips="1" connect="1" arrows="1" fold="1" page="1" pageScale="1" pageWidth="827" pageHeight="1169" math="0" shadow="0">
      <root>
        <mxCell id="0" />
        <mxCell id="1" parent="0" />
        <mxCell id="6kR46hmwEwbx-Tn87pbq-1" value="File" style="swimlane;fontStyle=1;align=center;verticalAlign=top;childLayout=stackLayout;horizontal=1;startSize=26;horizontalStack=0;resizeParent=1;resizeParentMax=0;resizeLast=0;collapsible=1;marginBottom=0;whiteSpace=wrap;html=1;" vertex="1" parent="1">
          <mxGeometry width="160" height="244" as="geometry">
            <mxRectangle width="100" height="30" as="alternateBounds" />
          </mxGeometry>
        </mxCell>
        <mxCell id="6kR46hmwEwbx-Tn87pbq-2" value="- name:&amp;nbsp; string&lt;br&gt;- extension: string&lt;br&gt;- sizeInMB: double&amp;nbsp;&lt;br&gt;- createDate: string&lt;br&gt;- lastModified: string" style="text;strokeColor=none;fillColor=none;align=left;verticalAlign=top;spacingLeft=4;spacingRight=4;overflow=hidden;rotatable=0;points=[[0,0.5],[1,0.5]];portConstraint=eastwest;whiteSpace=wrap;html=1;" vertex="1" parent="6kR46hmwEwbx-Tn87pbq-1">
          <mxGeometry y="26" width="160" height="84" as="geometry" />
        </mxCell>
        <mxCell id="6kR46hmwEwbx-Tn87pbq-3" value="" style="line;strokeWidth=1;fillColor=none;align=left;verticalAlign=middle;spacingTop=-1;spacingLeft=3;spacingRight=3;rotatable=0;labelPosition=right;points=[];portConstraint=eastwest;strokeColor=inherit;" vertex="1" parent="6kR46hmwEwbx-Tn87pbq-1">
          <mxGeometry y="110" width="160" height="28" as="geometry" />
        </mxCell>
        <mxCell id="6kR46hmwEwbx-Tn87pbq-4" value="+ edit()&lt;br&gt;+ getCreateDate()&lt;br&gt;+ getLastModified()&lt;br&gt;+ rename()&lt;br&gt;+ delete()&lt;br&gt;+ copy" style="text;strokeColor=none;fillColor=none;align=left;verticalAlign=top;spacingLeft=4;spacingRight=4;overflow=hidden;rotatable=0;points=[[0,0.5],[1,0.5]];portConstraint=eastwest;whiteSpace=wrap;html=1;" vertex="1" parent="6kR46hmwEwbx-Tn87pbq-1">
          <mxGeometry y="138" width="160" height="106" as="geometry" />
        </mxCell>
        <mxCell id="6kR46hmwEwbx-Tn87pbq-9" value="BankAccount" style="swimlane;fontStyle=1;align=center;verticalAlign=top;childLayout=stackLayout;horizontal=1;startSize=26;horizontalStack=0;resizeParent=1;resizeParentMax=0;resizeLast=0;collapsible=1;marginBottom=0;whiteSpace=wrap;html=1;" vertex="1" parent="1">
          <mxGeometry x="190" width="160" height="208" as="geometry">
            <mxRectangle x="190" width="120" height="30" as="alternateBounds" />
          </mxGeometry>
        </mxCell>
        <mxCell id="6kR46hmwEwbx-Tn87pbq-10" value="- name: string&lt;br&gt;- accountId: int&lt;br&gt;- surname: string&lt;br&gt;- personId: string&amp;nbsp;&amp;nbsp;&lt;br&gt;- balance: double" style="text;strokeColor=none;fillColor=none;align=left;verticalAlign=top;spacingLeft=4;spacingRight=4;overflow=hidden;rotatable=0;points=[[0,0.5],[1,0.5]];portConstraint=eastwest;whiteSpace=wrap;html=1;" vertex="1" parent="6kR46hmwEwbx-Tn87pbq-9">
          <mxGeometry y="26" width="160" height="84" as="geometry" />
        </mxCell>
        <mxCell id="6kR46hmwEwbx-Tn87pbq-11" value="" style="line;strokeWidth=1;fillColor=none;align=left;verticalAlign=middle;spacingTop=-1;spacingLeft=3;spacingRight=3;rotatable=0;labelPosition=right;points=[];portConstraint=eastwest;strokeColor=inherit;" vertex="1" parent="6kR46hmwEwbx-Tn87pbq-9">
          <mxGeometry y="110" width="160" height="8" as="geometry" />
        </mxCell>
        <mxCell id="6kR46hmwEwbx-Tn87pbq-12" value="+ deposit(double)&lt;br&gt;+ withdraw(double)&lt;br&gt;+ getLoan(double)&lt;br&gt;+ getBalance()&lt;br&gt;+ sendMoney(double)" style="text;strokeColor=none;fillColor=none;align=left;verticalAlign=top;spacingLeft=4;spacingRight=4;overflow=hidden;rotatable=0;points=[[0,0.5],[1,0.5]];portConstraint=eastwest;whiteSpace=wrap;html=1;" vertex="1" parent="6kR46hmwEwbx-Tn87pbq-9">
          <mxGeometry y="118" width="160" height="90" as="geometry" />
        </mxCell>
        <mxCell id="6kR46hmwEwbx-Tn87pbq-13" value="Smartphone" style="swimlane;fontStyle=1;align=center;verticalAlign=top;childLayout=stackLayout;horizontal=1;startSize=26;horizontalStack=0;resizeParent=1;resizeParentMax=0;resizeLast=0;collapsible=1;marginBottom=0;whiteSpace=wrap;html=1;" vertex="1" parent="1">
          <mxGeometry x="380" width="170" height="200" as="geometry" />
        </mxCell>
        <mxCell id="6kR46hmwEwbx-Tn87pbq-14" value="- model: string&lt;br&gt;- brand: string&lt;br&gt;- phoneNumber: string&lt;br&gt;- networkOperator: string&lt;br&gt;- phoneBook: string[]" style="text;strokeColor=none;fillColor=none;align=left;verticalAlign=top;spacingLeft=4;spacingRight=4;overflow=hidden;rotatable=0;points=[[0,0.5],[1,0.5]];portConstraint=eastwest;whiteSpace=wrap;html=1;" vertex="1" parent="6kR46hmwEwbx-Tn87pbq-13">
          <mxGeometry y="26" width="170" height="94" as="geometry" />
        </mxCell>
        <mxCell id="6kR46hmwEwbx-Tn87pbq-15" value="" style="line;strokeWidth=1;fillColor=none;align=left;verticalAlign=middle;spacingTop=-1;spacingLeft=3;spacingRight=3;rotatable=0;labelPosition=right;points=[];portConstraint=eastwest;strokeColor=inherit;" vertex="1" parent="6kR46hmwEwbx-Tn87pbq-13">
          <mxGeometry y="120" width="170" height="8" as="geometry" />
        </mxCell>
        <mxCell id="6kR46hmwEwbx-Tn87pbq-16" value="+ displayInfo()&lt;br&gt;+ call()&lt;br&gt;+ reject()&lt;br&gt;+ addPersonToPhoneBook()&lt;br&gt;" style="text;strokeColor=none;fillColor=none;align=left;verticalAlign=top;spacingLeft=4;spacingRight=4;overflow=hidden;rotatable=0;points=[[0,0.5],[1,0.5]];portConstraint=eastwest;whiteSpace=wrap;html=1;" vertex="1" parent="6kR46hmwEwbx-Tn87pbq-13">
          <mxGeometry y="128" width="170" height="72" as="geometry" />
        </mxCell>
      </root>
    </mxGraphModel>
  </diagram>
</mxfile>
